<svg width="128" height="128" viewBox="0 0 128 128" fill="none" xmlns="http://www.w3.org/2000/svg">
<path d="M83.1752 44.0782L80.2539 53.4255L80.614 51.9894C82.3987 50.4659 84.4008 49.3911 86.6205 48.765C88.8618 48.0893 90.9379 47.7252 92.8487 47.6726C94.8092 47.6416 96.211 47.8097 97.054 48.1769L91.997 58.3639C89.6967 57.0079 87.4412 56.4974 85.2303 56.8323C83.0195 57.1672 81.0541 58.022 79.3343 59.3968C77.6144 60.7716 76.3441 62.4012 75.5232 64.2856L69.9825 77.0053L59.6431 72.5014L73.8028 39.9956L83.1752 44.0782Z" fill="white"/>
<path d="M50.3357 62.2051C48.7248 63.7 46.9173 64.4628 44.913 64.4934C42.8834 64.4967 41.1065 63.7319 39.5823 62.199L27.1543 48.8069L32.8879 43.486L43.3396 54.7485C44.129 55.4896 44.9292 55.9412 45.7402 56.1032C46.5259 56.238 47.3419 55.9127 48.1883 55.1272C49.0347 54.3417 49.4922 53.3836 49.5608 52.2528C49.6566 51.0967 49.4123 49.8752 48.8278 48.5882C48.2453 47.2486 47.3712 45.9508 46.2057 44.6949L39.4406 37.405L45.1742 32.0842L61.7829 49.9812L56.5817 54.808L53.0907 51.9497L53.5147 52.2423C53.7893 53.3596 53.8786 54.4962 53.7827 55.6524C53.6868 56.8085 53.3414 57.9421 52.7464 59.0532C52.2041 60.1663 51.4005 61.217 50.3357 62.2051Z" fill="white"/>
<path d="M82.5685 48.1523C79.9866 48.9536 77.6418 49.1505 75.534 48.7432C73.4584 48.3259 71.6873 47.4072 70.2205 45.9871C68.7537 44.567 67.6748 42.7436 66.9837 40.5167C66.3227 38.3866 66.2754 36.296 66.8418 34.245C67.4083 32.1939 68.4561 30.3827 69.9852 28.8113C71.5043 27.2077 73.3935 26.0553 75.6526 25.3542C78.6864 24.4127 81.4469 24.529 83.9342 25.7031C86.4438 26.8349 88.5048 28.9728 90.1174 32.1167L75.2803 42.4532L72.6377 39.2397L83.2998 31.5257L82.0912 32.5908C81.5726 31.8318 80.8793 31.2508 80.0112 30.848C79.1654 30.4028 78.0809 30.3856 76.7577 30.7962C75.7572 31.1067 74.9448 31.6242 74.3205 32.3487C73.7184 33.0309 73.3428 33.8728 73.1936 34.8744C73.0668 35.8337 73.1836 36.8943 73.5442 38.0561C73.9548 39.3793 74.5424 40.4177 75.307 41.1711C76.0615 41.8923 76.9285 42.3486 77.9078 42.54C78.8871 42.7314 79.8932 42.6669 80.926 42.3464C81.6683 42.116 82.3382 41.7665 82.9358 41.298C83.5657 40.8195 84.1545 40.2653 84.702 39.6354L89.2659 43.7386C88.3367 44.7347 87.2705 45.6316 86.0675 46.4296C84.8967 47.2175 83.7304 47.7917 82.5685 48.1523Z" fill="white"/>
<path d="M32.9652 81.472L34.8455 70.775L32.3325 70.3332L33.0727 66.1223L35.5857 66.5641L36.493 61.4023C36.8352 59.4553 37.6685 57.9681 38.9927 56.9406C40.3435 55.8944 42.083 55.5583 44.2111 55.9324C44.845 56.0438 45.5289 56.2691 46.2628 56.6081C47.0233 56.9285 47.6601 57.3555 48.1731 57.8891L45.5666 60.9668C45.392 60.6327 45.1541 60.3925 44.8531 60.2462C44.5787 60.0813 44.3056 59.975 44.034 59.9272C43.3548 59.8078 42.7603 59.9367 42.2506 60.3139C41.7409 60.6911 41.3985 61.3777 41.2234 62.3739L40.3399 67.3998L44.8225 68.1877L44.0823 72.3986L39.5997 71.6107L37.7194 82.3077L32.9652 81.472ZM43.9339 83.4001L45.8142 72.703L43.3012 72.2613L44.0414 68.0504L46.5544 68.4921L47.4617 63.3304C47.8039 61.3834 48.6372 59.8962 49.9614 58.8686C51.3122 57.8225 53.0517 57.4864 55.1798 57.8605C55.8137 57.9719 56.4976 58.1971 57.2315 58.5362C57.992 58.8566 58.6288 59.2836 59.1418 59.8172L56.5353 62.8949C56.3607 62.5608 56.1228 62.3206 55.8218 62.1743C55.5474 62.0094 55.2744 61.903 55.0027 61.8553C54.3235 61.7359 53.729 61.8648 53.2193 62.242C52.7096 62.6191 52.3672 63.3058 52.1921 64.3019L51.3086 69.3278L55.7912 70.1158L55.051 74.3267L50.5684 73.5387L48.6881 84.2358L43.9339 83.4001Z" fill="white"/>
<path d="M71.2636 95.8119C69.1271 95.2971 67.4916 94.2134 66.3573 92.5607C65.2316 90.8719 64.8856 88.9686 65.3193 86.8508L69.5991 69.0889L77.2036 70.9212L73.6044 85.8586C73.4238 86.9262 73.4903 87.8426 73.804 88.6079C74.1264 89.3369 74.8489 89.8367 75.9715 90.1072C77.0941 90.3777 78.1453 90.2286 79.1252 89.6602C80.1413 89.1004 81.0237 88.221 81.7723 87.0221C82.5659 85.7957 83.1634 84.3496 83.5648 82.6839L85.8945 73.0153L93.499 74.8476L87.7795 98.5846L80.8811 96.9224L81.3307 92.433L81.3215 92.948C80.5427 93.7948 79.6453 94.4981 78.6292 95.0579C77.6131 95.6177 76.4776 95.9571 75.2229 96.0762C73.9956 96.2403 72.6758 96.1522 71.2636 95.8119Z" fill="white"/>
<path d="M73.717 31.472C71.8189 30.896 70.2052 29.9985 68.876 28.7795C67.5873 27.5389 66.7326 25.9881 66.3118 24.1273C65.891 22.2665 66.0536 20.1069 66.7997 17.6487C67.4985 15.346 68.5696 13.4962 70.013 12.0992C71.4565 10.7022 73.0775 9.78381 74.8761 9.34414C76.6841 8.87334 78.4438 8.89764 80.1553 9.41702C82.1779 10.0308 83.5987 10.8358 84.4178 11.832C85.2775 12.8066 85.9269 13.8022 86.3659 14.819L85.8451 15.5275L87.3584 12.7244L93.4262 14.5658L87.2362 34.9631L80.7016 32.98L82.0473 28.5458L82.1358 30.1019C82.0735 30.083 81.8302 30.213 81.4057 30.492C80.9906 30.7399 80.3964 31.0183 79.623 31.3273C78.8901 31.6146 78.0205 31.7925 77.0142 31.8609C76.0296 31.9699 74.9306 31.8403 73.717 31.472ZM77.1988 26.7176C77.9767 26.9537 78.7099 27.0572 79.3984 27.0283C80.0963 26.9682 80.7447 26.7912 81.3436 26.4972C81.952 26.1721 82.5313 25.7192 83.0813 25.1385L84.5969 20.1442C84.5558 19.3841 84.3571 18.6951 84.0008 18.0773C83.654 17.4283 83.1761 16.8755 82.5671 16.4188C81.9675 15.931 81.2477 15.5596 80.4075 15.3046C79.474 15.0213 78.5272 15.0058 77.567 15.2582C76.6475 15.4889 75.8268 15.9535 75.1051 16.652C74.3834 17.3505 73.8572 18.2443 73.5267 19.3334C73.1962 20.4225 73.1477 21.4782 73.3812 22.5006C73.6146 23.5229 74.0603 24.4058 74.7183 25.1492C75.4073 25.9021 76.2342 26.4249 77.1988 26.7176Z" fill="white"/>
<path d="M44.2527 121.6L23.4668 83.8394L30.0235 80.2301L41.6151 101.288L41.1194 100.501C41.1332 98.7888 41.5905 97.1651 42.4915 95.6298C43.3749 94.0626 44.7898 92.7433 46.736 91.6719C48.7142 90.583 50.6823 90.2688 52.6403 90.7292C54.6126 91.1402 56.124 92.2622 57.1746 94.0951L65.7893 109.745L59.089 113.433L51.8442 100.272C51.303 99.3644 50.6438 98.771 49.8666 98.4921C49.1038 98.1636 48.18 98.298 47.0952 98.8951C46.0742 99.4572 45.3653 100.284 44.9683 101.375C44.5714 102.467 44.4817 103.701 44.6992 105.078C44.9167 106.455 45.4382 107.893 46.2636 109.393L50.953 117.912L44.2527 121.6Z" fill="white"/>
<path d="M43.8571 43.4442C43.4333 43.379 42.7466 43.1614 41.7971 42.7913C40.8658 42.4417 39.8394 41.9015 38.7178 41.1706C37.5962 40.4397 36.5277 39.4788 35.5125 38.2877C33.9726 36.4612 32.8741 34.5745 32.217 32.6277C31.5986 30.6832 31.378 28.7538 31.5551 26.8393C31.7505 24.9454 32.3 23.1415 33.2038 21.4277C34.1076 19.7139 35.3311 18.1756 36.8744 16.8126C38.6028 15.2862 40.4144 14.1441 42.3091 13.3865C44.222 12.6494 46.1302 12.3011 48.0338 12.3414C49.9555 12.4023 51.8041 12.8574 53.5796 13.7067C55.3551 14.5559 56.9698 15.8036 58.4236 17.4498C59.7683 18.9725 60.7529 20.502 61.3771 22.0384C62.0014 23.5747 62.404 24.9222 62.585 26.081L56.8026 28.0561C56.7393 27.1963 56.5318 26.1527 56.1801 24.925C55.8671 23.6997 55.22 22.5315 54.2387 21.4203C53.4755 20.5561 52.5543 19.8863 51.4752 19.4108C50.4348 18.9378 49.3128 18.6835 48.1092 18.6477C46.9237 18.6324 45.7341 18.8406 44.5404 19.2722C43.3672 19.6857 42.2662 20.3467 41.2373 21.2553C40.1467 22.2184 39.2851 23.2541 38.6522 24.3623C38.0376 25.4912 37.6646 26.6447 37.5331 27.8229C37.4222 28.983 37.5553 30.1291 37.9324 31.2611C38.3276 32.4137 38.9887 33.5147 39.9154 34.5641C40.9876 35.7782 42.1008 36.6447 43.255 37.1636C44.4092 37.6826 45.4023 37.9776 46.2342 38.0487L43.8571 43.4442Z" fill="white"/>
 <style>
        path { fill: #000; }
        @media (prefers-color-scheme: dark) {
            path { fill: #FFF; }
        }
    </style>
</svg>
