<svg width="128" height="128" viewBox="0 0 128 128" fill="none" xmlns="http://www.w3.org/2000/svg">
<rect width="128" height="128" fill="white"/>
<path d="M112.305 62.8981L112.587 65.5036L112.522 65.1128C112.797 64.5482 113.173 64.0706 113.651 63.6797C114.128 63.2744 114.599 62.9632 115.062 62.7461C115.54 62.529 115.902 62.4204 116.148 62.4204L115.996 65.4602C115.286 65.3733 114.679 65.4891 114.172 65.8076C113.665 66.126 113.274 66.5458 112.999 67.0669C112.724 67.588 112.587 68.1236 112.587 68.6736V72.3864H109.569V62.8981H112.305Z" fill="black"/>
<path d="M100.363 72.7038C99.5087 72.7038 98.7922 72.4433 98.2132 71.9222C97.6342 71.3866 97.3302 70.6991 97.3013 69.8595V62.7595H100.341V68.7305C100.37 69.1502 100.479 69.4904 100.667 69.7509C100.855 69.997 101.173 70.1201 101.622 70.1201C102.071 70.1201 102.454 69.9681 102.773 69.6641C103.106 69.3601 103.359 68.9476 103.533 68.4265C103.721 67.8909 103.815 67.2902 103.815 66.6243V62.7595H106.855V72.2479H104.097L103.858 70.5109L103.902 70.7063C103.685 71.0971 103.41 71.4445 103.077 71.7485C102.744 72.0525 102.346 72.2841 101.883 72.4433C101.434 72.617 100.927 72.7038 100.363 72.7038Z" fill="black"/>
<path d="M89.4631 72.6253C88.3051 72.6253 87.3208 72.4082 86.5102 71.9739C85.714 71.5397 85.1061 70.9389 84.6863 70.1718C84.2665 69.4046 84.0566 68.5216 84.0566 67.5228C84.0566 66.5675 84.3027 65.7062 84.7949 64.9391C85.287 64.1719 85.9456 63.5639 86.7707 63.1152C87.5958 62.652 88.5149 62.4204 89.5282 62.4204C90.8888 62.4204 92.0034 62.8185 92.8719 63.6146C93.7549 64.3962 94.3267 65.5325 94.5872 67.0235L87.205 69.3684L86.5319 67.7183L91.8731 65.9161L91.2435 66.1984C91.1277 65.822 90.9178 65.4963 90.6138 65.2213C90.3243 64.9318 89.8828 64.7871 89.2894 64.7871C88.8406 64.7871 88.4426 64.8956 88.0952 65.1128C87.7622 65.3154 87.5017 65.6121 87.3135 66.003C87.1398 66.3793 87.053 66.828 87.053 67.3491C87.053 67.9426 87.1615 68.442 87.3787 68.8473C87.5958 69.2381 87.8925 69.5349 88.2689 69.7375C88.6452 69.9402 89.065 70.0415 89.5282 70.0415C89.8611 70.0415 90.1796 69.9836 90.4835 69.8678C90.802 69.752 91.1132 69.6 91.4172 69.4118L92.7634 71.6699C92.2567 71.9594 91.7067 72.191 91.1132 72.3647C90.5342 72.5384 89.9842 72.6253 89.4631 72.6253Z" fill="black"/>
<path d="M67.4685 72.3619V65.5225H65.8618V62.8301H67.4685V59.5298C67.4685 58.285 67.8232 57.2717 68.5325 56.4901C69.2562 55.694 70.2984 55.2959 71.6591 55.2959C72.0644 55.2959 72.5131 55.361 73.0052 55.4913C73.5119 55.6071 73.9533 55.8025 74.3297 56.0775L73.0487 58.2705C72.9039 58.0823 72.7302 57.9593 72.5276 57.9014C72.3394 57.829 72.1584 57.7928 71.9847 57.7928C71.5505 57.7928 71.1959 57.9376 70.9208 58.2271C70.6458 58.5166 70.5083 58.9798 70.5083 59.6167V62.8301H73.3743V65.5225H70.5083V72.3619H67.4685ZM74.4817 72.3619V65.5225H72.875V62.8301H74.4817V59.5298C74.4817 58.285 74.8363 57.2717 75.5456 56.4901C76.2693 55.694 77.3115 55.2959 78.6722 55.2959C79.0775 55.2959 79.5262 55.361 80.0184 55.4913C80.525 55.6071 80.9665 55.8025 81.3428 56.0775L80.0618 58.2705C79.917 58.0823 79.7433 57.9593 79.5407 57.9014C79.3525 57.829 79.1716 57.7928 78.9979 57.7928C78.5636 57.7928 78.209 57.9376 77.934 58.2271C77.6589 58.5166 77.5214 58.9798 77.5214 59.6167V62.8301H80.3875V65.5225H77.5214V72.3619H74.4817Z" fill="black"/>
<path d="M56.6557 72.7038C55.8017 72.7038 55.0852 72.4433 54.5062 71.9222C53.9272 71.3866 53.6232 70.6991 53.5942 69.8595V62.7595H56.634V68.7305C56.6629 69.1502 56.7715 69.4904 56.9597 69.7509C57.1479 69.997 57.4663 70.1201 57.915 70.1201C58.3637 70.1201 58.7473 69.9681 59.0658 69.6641C59.3987 69.3601 59.652 68.9476 59.8257 68.4265C60.0139 67.8909 60.108 67.2902 60.108 66.6243V62.7595H63.1477V72.2479H60.3903L60.1514 70.5109L60.1948 70.7063C59.9777 71.0971 59.7027 71.4445 59.3698 71.7485C59.0368 72.0525 58.6388 72.2841 58.1756 72.4433C57.7269 72.617 57.2202 72.7038 56.6557 72.7038Z" fill="black"/>
<path d="M44.6703 72.647C43.7874 72.647 42.984 72.4733 42.2602 72.1259C41.551 71.764 40.9865 71.214 40.5667 70.4757C40.1469 69.7375 39.937 68.7966 39.937 67.6531C39.937 66.582 40.1541 65.6556 40.5884 64.8739C41.0226 64.0923 41.5944 63.4916 42.3037 63.0718C43.0129 62.6375 43.7657 62.4204 44.5618 62.4204C45.5027 62.4204 46.2119 62.5796 46.6896 62.8981C47.1817 63.2021 47.587 63.5422 47.9055 63.9186L47.7752 64.2877L48.0575 62.8981H50.8801V72.3864H47.8404V70.3238L48.0792 70.9751C48.0502 70.9751 47.9634 71.062 47.8187 71.2357C47.6739 71.3949 47.4568 71.5903 47.1673 71.8219C46.8923 72.039 46.5448 72.2272 46.1251 72.3864C45.7198 72.5601 45.2349 72.647 44.6703 72.647ZM45.5388 70.1718C45.9007 70.1718 46.2264 70.1211 46.5159 70.0198C46.8054 69.904 47.0587 69.7448 47.2758 69.5421C47.493 69.325 47.6811 69.0572 47.8404 68.7387V66.4155C47.7246 66.0971 47.5509 65.8293 47.3193 65.6121C47.0877 65.3805 46.8126 65.2068 46.4942 65.091C46.1757 64.9608 45.8211 64.8956 45.4303 64.8956C44.996 64.8956 44.5907 65.0114 44.2144 65.243C43.8525 65.4602 43.563 65.7641 43.3459 66.155C43.1288 66.5458 43.0202 66.9945 43.0202 67.5011C43.0202 68.0078 43.136 68.4637 43.3676 68.869C43.5992 69.2743 43.9032 69.5928 44.2795 69.8244C44.6703 70.056 45.0901 70.1718 45.5388 70.1718Z" fill="black"/>
<path d="M27.4521 72.4271V55.2959H30.4268V64.8494L30.405 64.4803C30.738 63.8868 31.2084 63.4091 31.8164 63.0473C32.4243 62.6709 33.1698 62.4827 34.0527 62.4827C34.9502 62.4827 35.6957 62.7505 36.2891 63.2861C36.8971 63.8072 37.2083 64.4875 37.2228 65.3271V72.4271H34.183V66.4561C34.1685 66.0364 34.0527 65.7034 33.8356 65.4573C33.633 65.1968 33.2856 65.0665 32.7934 65.0665C32.3302 65.0665 31.9249 65.2185 31.5775 65.5225C31.2301 65.8265 30.9623 66.239 30.7742 66.7601C30.586 67.2812 30.4919 67.8819 30.4919 68.5622V72.4271H27.4521Z" fill="black"/>
<path d="M24.7382 70.804C24.5645 70.9488 24.2389 71.1442 23.7612 71.3902C23.298 71.6363 22.7262 71.8534 22.0459 72.0416C21.3656 72.2298 20.6129 72.3166 19.7878 72.3022C18.5285 72.2732 17.3994 72.0489 16.4006 71.6291C15.4163 71.1948 14.5768 70.6086 13.882 69.8704C13.2017 69.1321 12.6806 68.2854 12.3187 67.33C11.9568 66.3747 11.7759 65.3542 11.7759 64.2685C11.7759 63.0526 11.9568 61.9381 12.3187 60.9248C12.695 59.9116 13.2234 59.0358 13.9037 58.2976C14.5985 57.5594 15.4236 56.9876 16.3789 56.5823C17.3343 56.177 18.391 55.9744 19.549 55.9744C20.6201 55.9744 21.5682 56.1191 22.3933 56.4086C23.2184 56.6981 23.8915 57.0093 24.4126 57.3423L23.1749 60.3169C22.8131 60.0418 22.3282 59.7596 21.7202 59.4701C21.1267 59.1661 20.4392 59.0141 19.6575 59.0141C19.0496 59.0141 18.4633 59.1444 17.8988 59.4049C17.3488 59.651 16.8566 60.0057 16.4224 60.4689C16.0026 60.9321 15.6697 61.4749 15.4236 62.0973C15.1775 62.7052 15.0545 63.3711 15.0545 64.0948C15.0545 64.862 15.163 65.5641 15.3802 66.201C15.6118 66.8379 15.9374 67.3879 16.3572 67.8511C16.777 68.2998 17.2764 68.6472 17.8554 68.8933C18.4489 69.1394 19.1147 69.2624 19.8529 69.2624C20.707 69.2624 21.4379 69.1249 22.0459 68.8499C22.6538 68.5749 23.117 68.2854 23.4355 67.9814L24.7382 70.804Z" fill="black"/>
 <style>
        path { fill: #000; }
        @media (prefers-color-scheme: dark) {
            path { fill: #FFF; }
        }
    </style>
</svg>
